<?xml version="1.0" standalone="no"?>
<!DOCTYPE svg PUBLIC "-//W3C//DTD SVG 20010904//EN"
 "http://www.w3.org/TR/2001/REC-SVG-20010904/DTD/svg10.dtd">
<svg version="1.0" xmlns="http://www.w3.org/2000/svg"
 width="16.000000pt" height="16.000000pt" viewBox="0 0 16.000000 16.000000"
 preserveAspectRatio="xMidYMid meet">
<metadata>
Created by potrace 1.11, written by Peter Selinger 2001-2013
</metadata>
<g transform="translate(0.000000,16.000000) scale(0.005369,-0.005369)"
fill="#000000" stroke="none">
<path d="M1538 2965 c-2 -2 -30 -6 -63 -9 -297 -34 -596 -180 -834 -410 -199
-193 -326 -408 -396 -669 -14 -51 -25 -93 -24 -95 1 -4 -12 -114 -17 -142 -6
-34 -5 -236 1 -285 3 -22 7 -59 10 -83 5 -37 15 -94 31 -167 11 -57 56 -180
89 -246 183 -365 510 -653 876 -773 94 -30 140 -42 249 -61 55 -10 289 -13
355 -5 331 43 615 171 887 400 25 21 23 32 -17 70 l-34 33 -68 -55 c-193 -157
-448 -279 -678 -323 -123 -23 -337 -26 -455 -6 -388 67 -720 294 -944 645 -86
134 -136 263 -172 437 -23 114 -28 409 -8 502 7 37 16 80 19 96 18 102 100
294 176 411 196 303 558 547 897 605 17 3 47 8 65 11 56 10 239 11 317 2 299
-35 613 -189 836 -408 34 -33 66 -60 71 -60 5 0 24 16 43 35 l34 35 -25 26
c-54 60 -200 180 -284 236 -113 74 -262 146 -385 186 -83 26 -113 34 -190 48
-8 2 -31 6 -50 10 -35 6 -306 15 -312 9z"/>
<path d="M1243 2017 c-3 -5 -7 -251 -9 -547 l-3 -538 67 -5 c89 -6 369 -1 407
7 96 21 188 51 248 83 181 95 259 232 253 442 -2 80 -7 107 -31 161 -99 223
-275 337 -610 396 -58 10 -316 11 -322 1z m359 -162 c227 -48 353 -129 424
-272 25 -51 28 -69 28 -148 0 -70 -5 -100 -21 -136 -65 -141 -251 -222 -513
-223 l-135 -1 2 320 c0 176 1 357 2 402 l1 83 72 -6 c40 -3 103 -12 140 -19z"/>
</g>
</svg>
